<svg id="visual" viewBox="0 0 1920 1080" width="1920" height="1080" xmlns="http://www.w3.org/2000/svg" xmlns:xlink="http://www.w3.org/1999/xlink" version="1.1">
    <path d="M0 599L80 594.8C160 590.7 320 582.3 480 599.2C640 616 800 658 960 671.5C1120 685 1280 670 1440 647.7C1600 625.3 1760 595.7 1840 580.8L1920 566L1920 1081L1840 1081C1760 1081 1600 1081 1440 1081C1280 1081 1120 1081 960 1081C800 1081 640 1081 480 1081C320 1081 160 1081 80 1081L0 1081Z" fill="#223447"></path>
    <path d="M0 691L80 699.8C160 708.7 320 726.3 480 731C640 735.7 800 727.3 960 702.3C1120 677.3 1280 635.7 1440 631.7C1600 627.7 1760 661.3 1840 678.2L1920 695L1920 1081L1840 1081C1760 1081 1600 1081 1440 1081C1280 1081 1120 1081 960 1081C800 1081 640 1081 480 1081C320 1081 160 1081 80 1081L0 1081Z" fill="#192b3d"></path>
    <path d="M0 892L80 886C160 880 320 868 480 864.3C640 860.7 800 865.3 960 870.3C1120 875.3 1280 880.7 1440 870.7C1600 860.7 1760 835.3 1840 822.7L1920 810L1920 1081L1840 1081C1760 1081 1600 1081 1440 1081C1280 1081 1120 1081 960 1081C800 1081 640 1081 480 1081C320 1081 160 1081 80 1081L0 1081Z" fill="#112234"></path>
    <path d="M0 862L80 869.5C160 877 320 892 480 909.7C640 927.3 800 947.7 960 927C1120 906.3 1280 844.7 1440 838.3C1600 832 1760 881 1840 905.5L1920 930L1920 1081L1840 1081C1760 1081 1600 1081 1440 1081C1280 1081 1120 1081 960 1081C800 1081 640 1081 480 1081C320 1081 160 1081 80 1081L0 1081Z" fill="#091a2b"></path>
    <path d="M0 932L80 946.2C160 960.3 320 988.7 480 1007.5C640 1026.3 800 1035.7 960 1021.8C1120 1008 1280 971 1440 956C1600 941 1760 948 1840 951.5L1920 955L1920 1081L1840 1081C1760 1081 1600 1081 1440 1081C1280 1081 1120 1081 960 1081C800 1081 640 1081 480 1081C320 1081 160 1081 80 1081L0 1081Z" fill="#001122"></path>
</svg>