<svg width="1920" height="1080" xmlns="http://www.w3.org/2000/svg" version="1.1">
 <g>
  <title>Layer 1</title>
  <path d="m0,931.05263c144.44436,37.00021 417.71958,-52.97088 584.38626,-46.38201c166.66668,6.58886 219.94123,64.08201 379.94123,43.38201c160,-20.7 320,-82.3 480,-88.7c160,-6.3 320,42.7 400,67.2l75.67251,24.5l4.32749,151l-80,0c-80,0 -240,0 -400,0c-160,0 -320,0 -480,0c-160,0 -320,0 -480,0c-160,0 -320,0 -400,0l-90.81877,2.51464l6.49128,-153.51464z" fill="#091a2b" id="svg_1"/>
 </g>

</svg>