<svg width="1920" height="1080" xmlns="http://www.w3.org/2000/svg" version="1.1">

 <g>
  <title>Layer 1</title>
  <path id="svg_1" fill="#001122" d="m0,955.17647c180.00004,18.80588 198.82348,101.75885 447.05881,62.91177c248.23533,-38.84708 367.05884,-40.03532 516.4706,-13.93531c149.41176,26.10002 274.11763,-95.5059 476.47059,-44.62352c202.35296,50.88238 298.82348,-20.9706 480,-4.52941l0,129.52941l-80,0c-80,0 -240,0 -400,0c-160,0 -320,0 -480,0c-160,0 -320,0 -480,0c-160,0 -320,0 -400,0l-98.82354,5.88236c26.66667,-44.93333 -161.17651,-154.04118 18.82354,-135.2353z"/>
 </g>
</svg>